<svg id="visual" viewBox="0 0 540 960" width="540" height="960" xmlns="http://www.w3.org/2000/svg"
  xmlns:xlink="http://www.w3.org/1999/xlink" version="1.1">
  <g transform="translate(260.34602362600526 539.4975759524089)">
    <path
      d="M158.6 -312.3C184.6 -259.8 170.3 -174.9 192.9 -117.4C215.6 -60 275.3 -30 278.2 1.7C281.1 33.3 227.1 66.7 200.9 117.9C174.6 169.1 176.1 238.3 147.2 255.1C118.3 272 59.2 236.5 16.9 207.2C-25.3 177.8 -50.6 154.7 -96.7 147.8C-142.7 140.9 -209.5 150.2 -239.2 128.3C-268.8 106.3 -261.4 53.2 -241.9 11.3C-222.4 -30.7 -190.9 -61.3 -177 -110.6C-163.1 -159.8 -166.8 -227.5 -140.2 -279.7C-113.7 -331.9 -56.8 -368.4 4.7 -376.7C66.3 -384.9 132.7 -364.8 158.6 -312.3"
      fill="#235214"></path>
  </g>
</svg>