<svg id="visual" viewBox="0 0 540 960" width="540" height="960" xmlns="http://www.w3.org/2000/svg"
  xmlns:xlink="http://www.w3.org/1999/xlink" version="1.1">
  <g transform="translate(285.68069038356634 430.1029093268936)">
    <path
      d="M79.3 -147.1C105.5 -122.1 131.6 -106.6 156 -83.6C180.4 -60.7 203.2 -30.3 214 6.2C224.9 42.8 223.7 85.7 211.2 129.3C198.7 172.8 174.9 217.2 137.8 252C100.7 286.9 50.3 312.2 8.1 298.2C-34.2 284.2 -68.3 230.9 -86.7 185.2C-105 139.5 -107.5 101.5 -144.4 71.9C-181.3 42.3 -252.7 21.2 -252.8 -0.1C-253 -21.3 -181.9 -42.7 -138.4 -60.9C-95 -79.2 -79.1 -94.4 -60.7 -123.9C-42.2 -153.4 -21.1 -197.2 2.7 -201.9C26.5 -206.6 53 -172.1 79.3 -147.1"
      fill="#4AB42D"></path>
  </g>
</svg>