<svg id="visual" viewBox="0 0 540 960" width="540" height="960" xmlns="http://www.w3.org/2000/svg"
  xmlns:xlink="http://www.w3.org/1999/xlink" version="1.1">
  <g transform="translate(349.9819928198464 448.614805912849)">
    <path
      d="M104.2 -196.2C135.1 -162.7 160.2 -134.8 167.2 -103.1C174.2 -71.3 163 -35.7 172.6 5.5C182.1 46.7 212.3 93.3 211.2 135.3C210.2 177.3 177.8 214.7 137.4 245.7C97 276.7 48.5 301.3 -9.5 317.8C-67.5 334.2 -135 342.5 -174.7 311.1C-214.4 279.7 -226.3 208.6 -259.7 150.1C-293.1 91.7 -348.1 45.8 -365.2 -9.9C-382.4 -65.7 -361.8 -131.3 -313.4 -163.8C-265 -196.3 -188.7 -195.6 -131.9 -214.1C-75 -232.6 -37.5 -270.3 -0.4 -269.6C36.7 -268.8 73.3 -229.7 104.2 -196.2"
      fill="#2A6419"></path>
  </g>
</svg>