<svg id="visual" viewBox="0 0 540 960" width="540" height="960" xmlns="http://www.w3.org/2000/svg"
  xmlns:xlink="http://www.w3.org/1999/xlink" version="1.1">
  <g transform="translate(286.9861950452828 449.2249253315797)">
    <path
      d="M90.9 -142.9C121.8 -139.6 153.6 -123.3 185.1 -97.3C216.6 -71.3 247.8 -35.7 258.6 6.2C269.4 48.2 259.9 96.3 240.5 143.4C221.2 190.4 192.1 236.4 150.4 250.5C108.7 264.5 54.3 246.8 8.3 232.3C-37.7 217.9 -75.3 206.8 -95.3 180.1C-115.2 153.5 -117.3 111.2 -151.2 78.6C-185 46 -250.5 23 -279.3 -16.6C-308.1 -56.2 -300.2 -112.5 -268.2 -148.3C-236.2 -184.1 -180.1 -199.4 -131.4 -192.4C-82.7 -185.4 -41.3 -156 -5.7 -146.2C30 -136.3 60 -146.1 90.9 -142.9"
      fill="#FBA337"></path>
  </g>
</svg>