<svg id="visual" viewBox="0 0 540 960" width="540" height="960" xmlns="http://www.w3.org/2000/svg"
  xmlns:xlink="http://www.w3.org/1999/xlink" version="1.1">
  <g transform="translate(276.4998444715307 452.88218852540905)">
    <path
      d="M149.7 -244.7C187 -237.9 205.2 -183.4 214.6 -134.7C224 -86 224.5 -43 206.6 -10.3C188.7 22.3 152.4 44.7 142.5 92.6C132.7 140.5 149.3 214 130 255.3C110.7 296.7 55.3 305.8 5.6 296.2C-44.2 286.5 -88.3 258 -106.6 216C-124.9 174.1 -117.2 118.7 -117.5 80.4C-117.7 42.2 -125.9 21.1 -156.1 -17.5C-186.3 -56 -238.7 -112 -233.7 -142.2C-228.8 -172.3 -166.7 -176.7 -118.2 -177C-69.7 -177.3 -34.8 -173.7 10.7 -192.2C56.2 -210.8 112.5 -251.5 149.7 -244.7"
      fill="#DC7B04"></path>
  </g>
</svg>