<svg id="visual" viewBox="0 0 540 960" width="540" height="960" xmlns="http://www.w3.org/2000/svg"
  xmlns:xlink="http://www.w3.org/1999/xlink" version="1.1">
  <g transform="translate(281.1784443548942 531.4973398686511)">
    <path
      d="M104.7 -184C151 -154.5 214.5 -157.5 221 -132.3C227.5 -107 177 -53.5 164.6 -7.2C152.2 39.2 177.9 78.3 170.5 102.1C163.2 126 122.8 134.4 88.9 147.8C55 161.3 27.5 179.6 -4.4 187.3C-36.3 194.9 -72.7 191.9 -101.1 175.3C-129.5 158.7 -150.1 128.6 -180.4 97.1C-210.7 65.7 -250.9 32.8 -242.9 4.6C-235 -23.7 -179 -47.3 -153.7 -87.6C-128.5 -127.9 -134 -184.7 -113.5 -229.2C-93 -273.6 -46.5 -305.5 -8.7 -290.5C29.2 -275.5 58.3 -213.5 104.7 -184"
      fill="#FB9A23"></path>
  </g>
</svg>