<svg id="visual" viewBox="0 0 540 960" width="540" height="960" xmlns="http://www.w3.org/2000/svg" xmlns:xlink="http://www.w3.org/1999/xlink" version="1.1"><g transform="translate(283.7689565993613 450.0126535710416)"><path d="M147.1 -263.8C188.3 -231.1 217.5 -186.8 251.7 -140.9C285.9 -95 324.9 -47.5 321.2 -2.2C317.4 43.2 270.9 86.3 244 144.8C217 203.2 209.8 277 172.4 320.4C135 363.8 67.5 376.9 10.1 359.4C-47.3 342 -94.7 294 -142.9 256.8C-191.1 219.6 -240.2 193.3 -276.5 152.3C-312.8 111.3 -336.4 55.7 -345.4 -5.2C-354.3 -66 -348.6 -132 -305.5 -161.2C-262.4 -190.5 -181.8 -182.9 -124.7 -206.4C-67.5 -229.9 -33.8 -284.5 9.6 -301.1C53 -317.8 106 -296.6 147.1 -263.8" fill="#D72D1D"></path></g></svg>