<svg id="visual" viewBox="0 0 540 960" width="540" height="960" xmlns="http://www.w3.org/2000/svg" xmlns:xlink="http://www.w3.org/1999/xlink" version="1.1"><g transform="translate(231.04974937196394 513.4441600811562)"><path d="M157.1 -288.3C201.6 -246.5 234.2 -200.2 271.2 -151.5C308.2 -102.7 349.6 -51.3 349.4 -0.1C349.3 51.2 307.6 102.3 267.2 145.2C226.7 188.1 187.6 222.6 143.3 248.7C99 274.8 49.5 292.4 -5 301.1C-59.5 309.7 -119 309.4 -155.5 278.9C-192.1 248.3 -205.6 187.4 -219.1 135.9C-232.5 84.4 -245.7 42.2 -257.1 -6.6C-268.5 -55.3 -278 -110.7 -265.8 -164.2C-253.5 -217.8 -219.5 -269.5 -171.6 -309.4C-123.7 -349.2 -61.8 -377.1 -2.8 -372.3C56.3 -367.6 112.7 -330.1 157.1 -288.3" fill="#B42518"></path></g></svg>