<svg width="750" height="636" viewBox="0 0 750 636" fill="none" xmlns="http://www.w3.org/2000/svg">
<path d="M522.654 625.932C583.883 654.074 715.218 622.5 741.292 502.577C768.102 379.273 691.861 376.017 705.17 331.161C758.579 264.332 768.102 179.047 712.774 127.705C575.888 7.55396 541.666 151.735 427.594 63.6245C381.477 24.7648 311.621 -21.2823 210.857 10.758C68.3947 56.0576 102.489 150.598 102.489 219.02C102.489 243.112 11.6778 288.401 1.72536 350.385C-10.8236 428.541 47.3542 531.413 102.489 566.657C189.944 649.962 324.929 630.738 385.768 601.902C438.008 577.141 480.828 606.708 522.654 625.932Z" fill="#F0EFF5" fill-opacity="0.9"/>
</svg>
