<svg width="708" height="636" viewBox="0 0 708 636" fill="none" xmlns="http://www.w3.org/2000/svg">
<path d="M493.386 626.392C551.186 654.555 675.166 622.958 699.78 502.946C725.088 379.552 653.117 376.294 665.68 331.405C716.099 264.527 725.088 179.179 672.859 127.799C543.638 7.55952 511.333 151.847 403.649 63.6713C360.115 24.7831 294.17 -21.298 199.049 10.7659C64.5646 56.0988 96.7496 150.708 96.7496 219.181C96.7496 243.29 11.0238 288.613 1.62874 350.643C-10.2175 428.856 44.7024 531.804 96.7496 567.074C179.307 650.44 306.733 631.202 364.165 602.344C413.479 577.565 453.902 607.154 493.386 626.392Z" fill="#F5F5EF" fill-opacity="0.9"/>
</svg>
