<svg id="visual" viewBox="0 0 540 960" width="540" height="960" xmlns="http://www.w3.org/2000/svg"
  xmlns:xlink="http://www.w3.org/1999/xlink" version="1.1">
  <g transform="translate(284.69382887354794 522.2553507911193)">
    <path
      d="M130.8 -258.6C149 -216 129.3 -139.6 131.2 -90.9C133.1 -42.2 156.5 -21.1 166.4 5.7C176.3 32.5 172.6 65 163.3 100.9C154.1 136.9 139.3 176.3 111.1 196.7C83 217.1 41.5 218.5 -2 222C-45.5 225.5 -91 230.9 -112.8 206.9C-134.6 182.8 -132.7 129.1 -148.6 89.7C-164.5 50.3 -198.3 25.2 -201.4 -1.8C-204.6 -28.8 -177.2 -57.7 -166.4 -105.9C-155.5 -154.1 -161.3 -221.7 -136.3 -260.4C-111.3 -299.2 -55.7 -309.1 0.3 -309.6C56.2 -310.1 112.5 -301.2 130.8 -258.6"
      fill="#378321"></path>
  </g>
</svg>