<svg id="visual" viewBox="0 0 540 960" width="540" height="960" xmlns="http://www.w3.org/2000/svg"
  xmlns:xlink="http://www.w3.org/1999/xlink" version="1.1">
  <g transform="translate(273.90753714735223 463.0854253414292)">
    <path
      d="M126 -214.4C152 -203.2 153.9 -146.6 160.4 -103.3C166.9 -60 178 -30 177.4 -0.3C176.8 29.3 164.6 58.7 145.4 79.9C126.1 101.1 99.8 114.2 74.4 137.2C49 160.2 24.5 193.1 -15.9 220.6C-56.2 248.1 -112.5 270.2 -146 251.9C-179.5 233.5 -190.2 174.8 -183.2 126C-176.1 77.3 -151.4 38.7 -141.5 5.7C-131.7 -27.3 -136.9 -54.7 -142.1 -100.3C-147.4 -145.9 -152.7 -209.8 -129 -222.3C-105.3 -234.8 -52.7 -195.9 -1.3 -193.6C50 -191.3 100 -225.5 126 -214.4"
      fill="#43A329"></path>
  </g>
</svg>