<svg id="visual" viewBox="0 0 540 960" width="540" height="960" xmlns="http://www.w3.org/2000/svg"
  xmlns:xlink="http://www.w3.org/1999/xlink" version="1.1">
  <g transform="translate(272.7577153039157 535.5091651599273)">
    <path
      d="M94.9 -194.5C113.2 -153.9 111.4 -108.6 139.1 -75.4C166.7 -42.2 223.9 -21.1 235.8 6.9C247.7 34.8 214.3 69.7 184 98.2C153.7 126.8 126.3 149.1 96.2 155.4C66 161.6 33 151.8 5.3 142.6C-22.3 133.3 -44.7 124.7 -93.4 129.2C-142.1 133.6 -217.2 151.2 -237.5 131.8C-257.9 112.5 -223.4 56.3 -208.2 8.8C-193 -38.7 -196.9 -77.3 -182.9 -107.6C-168.9 -138 -137 -159.9 -103.5 -191.7C-70 -223.6 -35 -265.3 1.7 -268.2C38.3 -271.1 76.7 -235.1 94.9 -194.5"
      fill="#D36D0D"></path>
  </g>
</svg>