<svg id="visual" viewBox="0 0 540 960" width="540" height="960" xmlns="http://www.w3.org/2000/svg"
  xmlns:xlink="http://www.w3.org/1999/xlink" version="1.1">
  <g transform="translate(263.3202421470379 481.7822194339665)">
    <path
      d="M89.7 -142.2C119.5 -138.3 148.9 -120.6 190.2 -94.6C231.4 -68.7 284.5 -34.3 294.1 5.6C303.8 45.5 270.1 91 226 112.1C181.9 133.1 127.5 129.8 88.1 130.5C48.7 131.3 24.3 136.1 -11.6 156.2C-47.5 176.3 -95 211.5 -141.3 214.8C-187.7 218 -232.8 189.3 -258.4 148.1C-284 107 -290 53.5 -272.2 10.3C-254.5 -33 -213 -66 -189.7 -111.2C-166.5 -156.4 -161.5 -213.7 -132.9 -218.3C-104.3 -222.9 -52.2 -174.7 -11.1 -155.5C30 -136.3 60 -146.1 89.7 -142.2"
      fill="#FA900F"></path>
  </g>
</svg>