<svg id="visual" viewBox="0 0 540 960" width="540" height="960" xmlns="http://www.w3.org/2000/svg"
  xmlns:xlink="http://www.w3.org/1999/xlink" version="1.1">
  <g transform="translate(275.8053069283999 498.94230914695316)">
    <path
      d="M146.9 -251.9C181.2 -234.5 193.7 -176.8 203.2 -128C212.7 -79.3 219.4 -39.7 217.1 -1.3C214.8 37 203.5 74 184.7 106.6C165.8 139.2 139.4 167.5 107.4 182.8C75.3 198.1 37.7 200.6 -4.7 208.7C-47 216.7 -94 230.5 -112.3 207.2C-130.5 183.9 -120.1 123.6 -131.1 82.9C-142.1 42.2 -174.5 21.1 -198.8 -14C-223.2 -49.2 -239.3 -98.3 -221.8 -127.8C-204.3 -157.2 -153.2 -166.9 -110.6 -179.5C-68 -192.1 -34 -207.6 11.1 -226.8C56.2 -246.1 112.5 -269.2 146.9 -251.9"
      fill="#FBAC4B"></path>
  </g>
</svg>