<svg id="visual" viewBox="0 0 540 960" width="540" height="960" xmlns="http://www.w3.org/2000/svg"
  xmlns:xlink="http://www.w3.org/1999/xlink" version="1.1">
  <g transform="translate(243.50219665480938 474.94553381584706)">
    <path
      d="M114.6 -222.2C132.9 -187.9 121.2 -125.6 152.2 -83.9C183.1 -42.2 256.5 -21.1 280.4 13.8C304.3 48.7 278.6 97.3 238 122.3C197.4 147.3 142 148.5 99.8 179.5C57.7 210.5 28.8 271.3 -6.3 282.2C-41.5 293.2 -83 254.4 -131.7 227.2C-180.4 200 -236.4 184.4 -236.6 148.4C-236.9 112.5 -181.4 56.3 -164.8 9.6C-148.1 -37 -170.2 -74 -176.8 -121.8C-183.3 -169.6 -174.4 -228.1 -142.4 -254.4C-110.3 -280.8 -55.2 -274.9 -3.5 -268.8C48.2 -262.8 96.3 -256.5 114.6 -222.2"
      fill="#F18805"></path>
  </g>
</svg>