<svg id="visual" viewBox="0 0 540 960" width="540" height="960" xmlns="http://www.w3.org/2000/svg" xmlns:xlink="http://www.w3.org/1999/xlink" version="1.1"><g transform="translate(200.36059090678634 460.90435161718403)"><path d="M166.2 -290.9C199.4 -268.7 199.3 -191.8 229.2 -134.3C259.1 -76.7 319.1 -38.3 336.4 10C353.7 58.3 328.4 116.7 293.2 165.2C258.1 213.7 213 252.3 162.5 286.8C112 321.3 56 351.7 10.4 333.6C-35.2 315.6 -70.3 249.2 -99.8 202.5C-129.2 155.8 -152.9 128.9 -171.4 98.5C-189.8 68 -202.9 34 -202.7 0.1C-202.5 -33.8 -188.9 -67.5 -186.7 -126C-184.4 -184.4 -193.5 -267.6 -164.2 -292C-135 -316.5 -67.5 -282.2 -0.5 -281.4C66.5 -280.5 133 -313 166.2 -290.9" fill="#E7584B"></path></g></svg>