<svg id="visual" viewBox="0 0 540 960" width="540" height="960" xmlns="http://www.w3.org/2000/svg" xmlns:xlink="http://www.w3.org/1999/xlink" version="1.1"><g transform="translate(292.9359697381952 458.5490223491531)"><path d="M164.4 -282.9C205.1 -261.2 224.6 -201.1 248.9 -147.5C273.1 -94 302.1 -47 304.1 1.2C306.1 49.3 281.2 98.7 256.3 151.1C231.4 203.5 206.4 258.9 163.7 293.9C121 328.9 60.5 343.5 6.2 332.8C-48.2 322.1 -96.3 286.2 -139.3 251.4C-182.4 216.5 -220.2 182.8 -263.6 141C-307.1 99.3 -356 49.7 -349.5 3.7C-343.1 -42.2 -281.1 -84.4 -237.6 -125.8C-194 -167.2 -168.7 -207.9 -132.2 -232C-95.7 -256 -47.8 -263.5 7 -275.6C61.8 -287.8 123.7 -304.5 164.4 -282.9" fill="#C5291B"></path></g></svg>