<svg id="visual" viewBox="0 0 540 960" width="540" height="960" xmlns="http://www.w3.org/2000/svg" xmlns:xlink="http://www.w3.org/1999/xlink" version="1.1"><g transform="translate(301.34094405344865 521.1254901021773)"><path d="M99.3 -205.7C128.6 -155.1 152.2 -128.3 172 -98C191.9 -67.7 207.9 -33.8 211 1.7C214 37.3 204 74.7 185.1 106.6C166.2 138.5 138.3 164.9 106 180C73.7 195.1 36.8 198.8 -13.9 222.9C-64.7 247 -129.3 291.5 -180.6 287.3C-231.8 283.2 -269.6 230.3 -273.8 174.3C-278 118.3 -248.5 59.2 -242.3 3.6C-236.1 -52 -253.1 -104 -249.7 -161.3C-246.3 -218.6 -222.4 -281.2 -177.4 -322.7C-132.3 -364.2 -66.2 -384.6 -15.6 -357.6C35 -330.6 70 -256.2 99.3 -205.7" fill="#e23728"></path></g></svg>