<svg id="visual" viewBox="0 0 540 960" width="540" height="960" xmlns="http://www.w3.org/2000/svg" xmlns:xlink="http://www.w3.org/1999/xlink" version="1.1"><g transform="translate(256.62084825365855 518.5420700137327)"><path d="M169.2 -307.9C203.4 -273.3 204.3 -195.9 204.3 -137.5C204.3 -79 203.4 -39.5 218.7 8.8C234 57.2 265.5 114.3 250.1 146.1C234.7 177.8 172.3 184.2 122.8 192.9C73.3 201.7 36.7 212.8 -9 228.4C-54.7 244 -109.3 264 -145.7 247.7C-182.1 231.4 -200.2 178.7 -210.8 131.3C-221.5 84 -224.7 42 -226.6 -1.1C-228.5 -44.2 -229 -88.3 -209.6 -120.5C-190.2 -152.7 -150.8 -172.9 -112.6 -205.2C-74.3 -237.4 -37.2 -281.7 15.2 -308C67.5 -334.2 135 -342.5 169.2 -307.9" fill="#e4483a"></path></g></svg>